<svg width="174" height="57" viewBox="0 0 174 57" fill="none" xmlns="http://www.w3.org/2000/svg">
<path d="M20.9041 41.407C21.444 40.248 21.715 38.9875 21.6977 37.715C21.7361 36.487 21.4693 35.2682 20.92 34.1621C20.4136 33.1875 19.7099 32.3228 18.8513 31.6199C17.9786 30.9136 17.0155 30.3206 15.986 29.8558C14.9253 29.3752 13.8401 28.9467 12.739 28.5742L9.5239 27.4756C8.5738 27.1506 7.65548 26.7434 6.77995 26.259C6.05226 25.8682 5.41117 25.3412 4.8936 24.7082C4.43596 24.0833 4.20623 23.3272 4.24099 22.5605C4.23545 21.8526 4.40545 21.1539 4.73656 20.5236C5.08827 19.8717 5.58492 19.3044 6.19034 18.863C6.89747 18.3512 7.69031 17.9625 8.5337 17.7141C9.57658 17.4115 10.6607 17.2652 11.7488 17.2802C13.027 17.289 14.3003 17.4345 15.5459 17.7141C16.7099 17.9617 17.8529 18.2949 18.965 18.711L19.2631 18.8273L20.2232 16.8682L19.9411 16.74C19.3901 16.4996 18.8226 16.2965 18.2429 16.1322C17.5215 15.9133 16.7893 15.73 16.049 15.5829C15.2779 15.4245 14.4608 15.29 13.6746 15.1929C11.5868 14.8667 9.44954 15.0187 7.43255 15.6369C6.31589 15.9999 5.27669 16.5583 4.36606 17.2847C3.53692 17.9613 2.86398 18.8008 2.39132 19.7482C1.93018 20.6813 1.69135 21.7036 1.69264 22.739C1.66132 23.7657 1.93987 24.7788 2.49382 25.6529C3.03526 26.4577 3.73911 27.147 4.56259 27.6788C5.45829 28.2655 6.41836 28.7531 7.42503 29.1326C8.44719 29.5281 9.53894 29.9235 10.6476 30.2998C11.7563 30.676 12.802 31.0605 13.8448 31.4743C14.8014 31.8571 15.7132 32.3386 16.5643 32.9107C17.3283 33.4239 17.9713 34.0895 18.4507 34.8633C18.944 35.7067 19.189 36.6662 19.1588 37.6363C19.1846 38.6767 18.9093 39.7033 18.3642 40.5987C17.8442 41.4204 17.1466 42.1221 16.3198 42.6548C15.4635 43.2051 14.5208 43.616 13.5289 43.8714C11.7243 44.3438 9.83065 44.394 8.00241 44.0179C7.17276 43.8543 6.35582 43.6346 5.55749 43.3606C4.80721 43.1042 4.072 42.8077 3.35518 42.4726C2.7509 42.1931 2.16573 41.876 1.6033 41.5233L1.29675 41.3283L0 43.4943L0.290569 43.6398C0.628156 43.8101 1.10021 44.06 1.7011 44.3878C2.41504 44.7681 3.15278 45.1044 3.90999 45.3948C4.85555 45.7589 5.83062 46.0459 6.82508 46.2525C7.98112 46.4881 9.15904 46.6068 10.3401 46.6068H10.673C12.1514 46.6073 13.6223 46.402 15.0409 45.9971C16.3291 45.6266 17.5345 45.0242 18.5945 44.2211C19.5795 43.4705 20.3707 42.5062 20.905 41.4052M36.8788 17.5438H46.0143V15.2149H25.2748V17.5438H34.3154V46.2379H36.8778L36.8788 17.5438ZM85.3765 46.2736L64.3202 14.023L64.0286 13.5909L42.9835 45.8058L42.677 46.2745L45.7115 46.2626L54.2339 33.2265H61.7812L60.5004 30.9031H55.747L64.0333 18.2267L82.248 46.1161L82.342 46.2626L85.3765 46.2736ZM112.154 56.5267C112.084 56.2713 109.214 51.868 107.147 48.6437L105.582 46.2104L104.482 44.5068L102.924 42.1467L100.994 39.2054L99.0192 36.2246L97.3444 33.676L96.4802 32.3678C98.1981 31.7217 99.6489 30.5417 100.607 29.0108C101.516 27.5189 101.996 25.8172 101.999 24.0829C102.035 22.6833 101.699 21.2984 101.024 20.0622C100.416 18.9881 99.5706 18.0593 98.5481 17.3433C97.5268 16.6463 96.3876 16.1295 95.1825 15.8163C94.0118 15.5028 92.8037 15.3415 91.5895 15.3366H85.337L75.3844 0H72.3818L83.7958 17.6409H91.5067C92.592 17.6404 93.6698 17.8152 94.6964 18.1581C95.6162 18.467 96.4712 18.935 97.2203 19.5395C97.8918 20.0872 98.4366 20.767 98.8189 21.5343C99.1874 22.295 99.3754 23.1266 99.369 23.9676C99.3549 24.7183 99.2331 25.4633 99.007 26.1811C98.7514 27.0149 98.3203 27.7878 97.7412 28.4506C97.0638 29.2116 96.224 29.8196 95.2803 30.232C94.131 30.7101 92.8939 30.9561 91.644 30.9553C91.5374 30.9553 91.4312 30.9534 91.3252 30.9498H86.6742L87.9484 33.2741H91.3083C91.7888 33.2741 92.2599 33.2521 92.7329 33.2073L93.8614 33.0855C94.1529 33.524 94.5299 34.087 94.9785 34.7764C95.4816 35.5637 96.0401 36.415 96.6448 37.3305L98.5076 40.1409L100.269 42.8177L101.661 44.959L103.421 47.7054C106.463 52.4657 109.199 56.751 109.285 56.8663L109.388 57H112.491L112.154 56.5267ZM133.333 19.2118L134.649 17.2344L134.367 17.0769C133.019 16.3592 131.582 15.8134 130.09 15.4529C128.54 15.0767 126.948 14.8867 125.35 14.8872H125.268C120.774 14.8711 116.444 16.5272 113.163 19.5166C111.597 20.9751 110.334 22.7142 109.445 24.6386C108.525 26.6234 108.056 28.7779 108.069 30.9553C108.057 33.0583 108.472 35.1428 109.292 37.0888C110.077 38.9615 111.259 40.6526 112.759 42.0524C114.326 43.4941 116.165 44.6264 118.175 45.3865C120.346 46.1898 122.65 46.6 124.973 46.5968H125.255H125.332C128.483 46.6012 131.586 45.8491 134.367 44.407L134.533 44.3218V30.9424H126.12L127.343 33.254H132.044V42.8132C131.015 43.3095 129.927 43.6833 128.806 43.9264C127.609 44.1907 126.386 44.3255 125.158 44.3282H124.98C123.013 44.3296 121.063 43.9725 119.231 43.2755C117.546 42.646 116.011 41.6879 114.72 40.46C113.429 39.2321 112.409 37.7603 111.723 36.1349C111.03 34.476 110.678 32.7005 110.689 30.9095C110.683 29.0757 111.076 27.2614 111.845 25.587C112.599 23.9357 113.672 22.4406 115.005 21.1828C116.352 19.928 117.928 18.9295 119.651 18.2386C121.417 17.5304 123.309 17.1665 125.218 17.1676H125.295C126.675 17.1687 128.048 17.3385 129.384 17.6729C130.662 17.9833 131.894 18.4493 133.052 19.0598L133.333 19.2118ZM171.47 30.7593C171.484 32.5805 171.089 34.3827 170.313 36.0397C169.555 37.659 168.479 39.1182 167.146 40.335C165.775 41.5735 164.185 42.5588 162.452 43.2425C160.66 43.9506 158.744 44.314 156.81 44.3127H156.663C154.767 44.3137 152.889 43.95 151.137 43.2425C149.43 42.5543 147.866 41.569 146.522 40.335C145.203 39.1158 144.143 37.6565 143.401 36.0397C142.651 34.3829 142.263 32.592 142.263 30.7813C142.263 28.9706 142.651 27.1798 143.401 25.5229C144.933 22.2218 147.72 19.627 151.176 18.2835C154.812 16.8558 158.875 16.8558 162.512 18.2835C165.971 19.6184 168.763 22.2068 170.303 25.5046C171.07 27.1538 171.467 28.9434 171.467 30.7539L171.47 30.7593ZM172.649 24.58L172.688 24.5919C170.844 20.7224 167.542 17.6908 163.466 16.1239C161.389 15.3187 159.173 14.9055 156.937 14.9064H156.614C154.388 14.9039 152.183 15.3172 150.117 16.1239C146.092 17.7097 142.844 20.7382 141.045 24.5855C140.151 26.5244 139.689 28.6255 139.689 30.7507C139.689 32.8758 140.151 34.9769 141.045 36.9158C141.928 38.7975 143.168 40.4998 144.701 41.9334C147.94 44.9237 152.234 46.5896 156.698 46.5876H156.818C159.097 46.5886 161.355 46.159 163.466 45.3224C165.489 44.5237 167.346 43.3735 168.947 41.9279C170.501 40.5027 171.758 38.7991 172.65 36.9103C173.54 34.9705 174 32.8697 174 30.7452C174 28.6206 173.54 26.5198 172.65 24.58" fill="#002846"/>
</svg>
