<svg width="81" height="58" viewBox="0 0 81 58" fill="none" xmlns="http://www.w3.org/2000/svg">
<path d="M81 35.8525C81 47.6723 71.2908 57.2459 59.3036 57.2459H57.8571C54.6569 57.2459 52.0714 54.6965 52.0714 51.541C52.0714 48.3854 54.6569 45.8361 57.8571 45.8361H59.3036C64.8904 45.8361 69.4286 41.3613 69.4286 35.8525V34.4262H57.8571C51.4748 34.4262 46.2857 29.3096 46.2857 23.0164V11.6066C46.2857 5.31331 51.4748 0.196716 57.8571 0.196716H69.4286C75.8109 0.196716 81 5.31331 81 11.6066V17.3115V23.0164V35.8525ZM34.7143 35.8525C34.7143 47.6723 25.0051 57.2459 13.0179 57.2459H11.5714C8.37121 57.2459 5.78571 54.6965 5.78571 51.541C5.78571 48.3854 8.37121 45.8361 11.5714 45.8361H13.0179C18.6047 45.8361 23.1429 41.3613 23.1429 35.8525V34.4262H11.5714C5.18906 34.4262 0 29.3096 0 23.0164V11.6066C0 5.31331 5.18906 0.196716 11.5714 0.196716H23.1429C29.5252 0.196716 34.7143 5.31331 34.7143 11.6066V17.3115V23.0164V35.8525Z" fill="#C2C8CF"/>
</svg>
