<svg width="21" height="21" viewBox="0 0 21 21" fill="none" xmlns="http://www.w3.org/2000/svg">
<path fill-rule="evenodd" clip-rule="evenodd" d="M17.515 17.3606C17.943 16.9313 18.2791 16.4153 18.4984 15.8494C18.7085 15.3058 18.8529 14.6861 18.8949 13.7776C18.9369 12.8677 18.9474 12.5762 18.9474 10.2588C18.9474 7.94146 18.9369 7.64998 18.8949 6.74011C18.8529 5.83154 18.7085 5.21182 18.4984 4.66826C18.284 4.09889 17.948 3.58315 17.5137 3.15705C17.0875 2.72285 16.5718 2.3868 16.0025 2.17233C15.4589 1.96225 14.8392 1.81783 13.9306 1.77581C13.0208 1.7338 12.7293 1.72461 10.4119 1.72461C8.09454 1.72461 7.80306 1.7338 6.89318 1.77713C5.98461 1.81652 5.3649 1.96094 4.82133 2.17233C4.25225 2.38729 3.73663 2.72327 3.31012 3.15705C2.87635 3.58355 2.54037 4.09917 2.3254 4.66826C2.11533 5.21182 1.97091 5.83154 1.92889 6.74011C1.88688 7.64998 1.87769 7.94146 1.87769 10.2588C1.87769 12.5762 1.88688 12.8677 1.9302 13.7776C1.96959 14.6861 2.11402 15.3058 2.3254 15.8494C2.54073 16.4192 2.87685 16.9339 3.31012 17.3606C3.73683 17.7939 4.25282 18.13 4.82133 18.3453C5.3649 18.5554 5.98461 18.6998 6.89318 18.7418C7.80306 18.7825 8.09454 18.793 10.4119 18.793C12.7293 18.793 13.0208 18.7825 13.9306 18.7405C14.8392 18.7011 15.4589 18.5567 16.0025 18.3453C16.5693 18.1259 17.0854 17.7905 17.515 17.3606ZM3.19064 9.25442V11.2632C3.18802 12.3412 3.18802 12.6208 3.2169 13.2327C3.25104 14.0021 3.29305 14.5666 3.42172 14.992C3.54514 15.4017 3.683 15.8192 4.13466 16.3208C4.58632 16.8236 5.0209 17.0508 5.57497 17.2188C6.13035 17.3856 6.82753 17.421 7.43281 17.4486C8.11817 17.4801 8.39126 17.4801 9.83027 17.4801H11.3835C12.489 17.4814 12.7673 17.4827 13.3871 17.4538C14.1551 17.4184 14.7197 17.3764 15.1464 17.249C15.5548 17.1256 15.9723 16.9864 16.4738 16.5361C16.9767 16.0844 17.2038 15.6485 17.3719 15.0944C17.5386 14.5404 17.5754 13.8432 17.603 13.2379C17.6332 12.5526 17.6332 12.2808 17.6332 10.8457V9.67719C17.6332 8.23819 17.6332 7.96641 17.603 7.27973C17.5754 6.67446 17.5386 5.97728 17.3719 5.42321C17.2051 4.86783 16.978 4.43324 16.4738 3.98158C15.971 3.52993 15.5548 3.39206 15.1464 3.26865C14.7197 3.14129 14.1551 3.09796 13.3871 3.06383C12.7196 3.0364 12.0515 3.02764 11.3835 3.03757H9.83027C8.39126 3.03757 8.11817 3.03757 7.43281 3.06776C6.82753 3.09534 6.13035 3.1321 5.57497 3.29884C5.0209 3.4669 4.58632 3.69404 4.13466 4.19691C3.683 4.69977 3.54383 5.11598 3.42172 5.52562C3.29305 5.95102 3.25104 6.51559 3.2169 7.28498C3.18802 7.89682 3.18802 8.17648 3.19064 9.25442ZM10.4119 7.30468C9.62841 7.30468 8.87701 7.61592 8.323 8.16993C7.76899 8.72394 7.45775 9.47534 7.45775 10.2588C7.45775 11.0423 7.76899 11.7937 8.323 12.3477C8.87701 12.9017 9.62841 13.213 10.4119 13.213C11.1954 13.213 11.9468 12.9017 12.5008 12.3477C13.0548 11.7937 13.3661 11.0423 13.3661 10.2588C13.3661 9.47534 13.0548 8.72394 12.5008 8.16993C11.9468 7.61592 11.1954 7.30468 10.4119 7.30468ZM6.1448 10.2588C6.1448 9.12712 6.59436 8.04177 7.3946 7.24153C8.19484 6.44129 9.2802 5.99172 10.4119 5.99172C11.5436 5.99172 12.629 6.44129 13.4292 7.24153C14.2294 8.04177 14.679 9.12712 14.679 10.2588C14.679 11.3905 14.2294 12.4759 13.4292 13.2761C12.629 14.0764 11.5436 14.5259 10.4119 14.5259C9.2802 14.5259 8.19484 14.0764 7.3946 13.2761C6.59436 12.4759 6.1448 11.3905 6.1448 10.2588ZM14.9679 6.68759C15.229 6.68759 15.4795 6.58384 15.6642 6.39917C15.8488 6.2145 15.9526 5.96403 15.9526 5.70287C15.9526 5.44171 15.8488 5.19124 15.6642 5.00657C15.4795 4.8219 15.229 4.71815 14.9679 4.71815C14.7067 4.71815 14.4562 4.8219 14.2716 5.00657C14.0869 5.19124 13.9831 5.44171 13.9831 5.70287C13.9831 5.96403 14.0869 6.2145 14.2716 6.39917C14.4562 6.58384 14.7067 6.68759 14.9679 6.68759Z" fill="white"/>
</svg>
