<svg width="21" height="21" viewBox="0 0 21 21" fill="none" xmlns="http://www.w3.org/2000/svg">
<path fill-rule="evenodd" clip-rule="evenodd" d="M17.5143 17.3609C17.9423 16.9316 18.2784 16.4156 18.4977 15.8497C18.7077 15.3061 18.8522 14.6864 18.8942 13.7778C18.9362 12.8679 18.9467 12.5765 18.9467 10.2591C18.9467 7.94174 18.9362 7.65026 18.8942 6.74038C18.8522 5.83181 18.7077 5.2121 18.4977 4.66853C18.2833 4.09916 17.9472 3.58343 17.513 3.15732C17.0868 2.72312 16.5711 2.38708 16.0017 2.1726C15.4582 1.96253 14.8385 1.8181 13.9299 1.77609C13.02 1.73407 12.7285 1.72488 10.4112 1.72488C8.0938 1.72488 7.80233 1.73407 6.89245 1.7774C5.98388 1.81679 5.36417 1.96122 4.8206 2.1726C4.25152 2.38757 3.7359 2.72355 3.30939 3.15732C2.87562 3.58383 2.53963 4.09945 2.32467 4.66853C2.1146 5.2121 1.97017 5.83181 1.92816 6.74038C1.88614 7.65026 1.87695 7.94174 1.87695 10.2591C1.87695 12.5765 1.88614 12.8679 1.92947 13.7778C1.96886 14.6864 2.11329 15.3061 2.32467 15.8497C2.54 16.4195 2.87611 16.9342 3.30939 17.3609C3.7361 17.7942 4.25209 18.1303 4.8206 18.3456C5.36417 18.5557 5.98388 18.7001 6.89245 18.7421C7.80233 18.7828 8.0938 18.7933 10.4112 18.7933C12.7285 18.7933 13.02 18.7828 13.9299 18.7408C14.8385 18.7014 15.4582 18.557 16.0017 18.3456C16.5686 18.1262 17.0846 17.7908 17.5143 17.3609ZM3.18991 9.25469V11.2635C3.18728 12.3415 3.18728 12.6211 3.21617 13.233C3.25031 14.0023 3.29232 14.5669 3.42099 14.9923C3.54441 15.402 3.68227 15.8195 4.13393 16.321C4.58558 16.8239 5.02017 17.051 5.57424 17.2191C6.12962 17.3858 6.8268 17.4213 7.43207 17.4489C8.11744 17.4804 8.39053 17.4804 9.82953 17.4804H11.3828C12.4883 17.4817 12.7666 17.483 13.3863 17.4541C14.1544 17.4187 14.719 17.3766 15.1457 17.2493C15.554 17.1259 15.9715 16.9867 16.4731 16.5364C16.976 16.0847 17.2031 15.6488 17.3712 15.0947C17.5379 14.5407 17.5747 13.8435 17.6022 13.2382C17.6324 12.5528 17.6324 12.2811 17.6324 10.846V9.67746C17.6324 8.23846 17.6324 7.96668 17.6022 7.28C17.5747 6.67473 17.5379 5.97755 17.3712 5.42348C17.2044 4.8681 16.9773 4.43351 16.4731 3.98186C15.9702 3.5302 15.554 3.39234 15.1457 3.26892C14.719 3.14156 14.1544 3.09824 13.3863 3.0641C12.7189 3.03667 12.0507 3.02791 11.3828 3.03784H9.82953C8.39053 3.03784 8.11744 3.03784 7.43207 3.06804C6.8268 3.09561 6.12962 3.13237 5.57424 3.29912C5.02017 3.46718 4.58558 3.69432 4.13393 4.19718C3.68227 4.70004 3.5431 5.11625 3.42099 5.52589C3.29232 5.95129 3.25031 6.51586 3.21617 7.28526C3.18728 7.89709 3.18728 8.17675 3.18991 9.25469ZM10.4112 7.30495C9.62768 7.30495 8.87628 7.61619 8.32227 8.1702C7.76826 8.72421 7.45702 9.47561 7.45702 10.2591C7.45702 11.0426 7.76826 11.794 8.32227 12.348C8.87628 12.902 9.62768 13.2133 10.4112 13.2133C11.1947 13.2133 11.9461 12.902 12.5001 12.348C13.0541 11.794 13.3653 11.0426 13.3653 10.2591C13.3653 9.47561 13.0541 8.72421 12.5001 8.1702C11.9461 7.61619 11.1947 7.30495 10.4112 7.30495ZM6.14406 10.2591C6.14406 9.1274 6.59363 8.04204 7.39387 7.2418C8.19411 6.44156 9.27946 5.99199 10.4112 5.99199C11.5429 5.99199 12.6282 6.44156 13.4285 7.2418C14.2287 8.04204 14.6783 9.1274 14.6783 10.2591C14.6783 11.3908 14.2287 12.4762 13.4285 13.2764C12.6282 14.0766 11.5429 14.5262 10.4112 14.5262C9.27946 14.5262 8.19411 14.0766 7.39387 13.2764C6.59363 12.4762 6.14406 11.3908 6.14406 10.2591ZM14.9671 6.68786C15.2283 6.68786 15.4788 6.58411 15.6634 6.39944C15.8481 6.21477 15.9519 5.96431 15.9519 5.70314C15.9519 5.44198 15.8481 5.19151 15.6634 5.00684C15.4788 4.82217 15.2283 4.71843 14.9671 4.71843C14.706 4.71843 14.4555 4.82217 14.2708 5.00684C14.0862 5.19151 13.9824 5.44198 13.9824 5.70314C13.9824 5.96431 14.0862 6.21477 14.2708 6.39944C14.4555 6.58411 14.706 6.68786 14.9671 6.68786Z" fill="white"/>
</svg>
