<svg width="21" height="21" viewBox="0 0 21 21" fill="none" xmlns="http://www.w3.org/2000/svg">
<path fill-rule="evenodd" clip-rule="evenodd" d="M17.515 17.3609C17.943 16.9315 18.2791 16.4155 18.4984 15.8496C18.7085 15.3061 18.8529 14.6864 18.8949 13.7778C18.9369 12.8679 18.9474 12.5764 18.9474 10.2591C18.9474 7.9417 18.9369 7.65023 18.8949 6.74035C18.8529 5.83178 18.7085 5.21207 18.4984 4.6685C18.284 4.09913 17.948 3.5834 17.5137 3.15729C17.0875 2.72309 16.5718 2.38705 16.0025 2.17257C15.4589 1.9625 14.8392 1.81807 13.9306 1.77606C13.0208 1.73404 12.7293 1.72485 10.4119 1.72485C8.09454 1.72485 7.80306 1.73404 6.89318 1.77737C5.98461 1.81676 5.3649 1.96119 4.82133 2.17257C4.25225 2.38754 3.73663 2.72352 3.31012 3.15729C2.87635 3.5838 2.54037 4.09942 2.3254 4.6685C2.11533 5.21207 1.97091 5.83178 1.92889 6.74035C1.88688 7.65023 1.87769 7.9417 1.87769 10.2591C1.87769 12.5764 1.88688 12.8679 1.9302 13.7778C1.96959 14.6864 2.11402 15.3061 2.3254 15.8496C2.54073 16.4195 2.87685 16.9341 3.31012 17.3609C3.73683 17.7941 4.25282 18.1303 4.82133 18.3456C5.3649 18.5556 5.98461 18.7001 6.89318 18.7421C7.80306 18.7828 8.09454 18.7933 10.4119 18.7933C12.7293 18.7933 13.0208 18.7828 13.9306 18.7408C14.8392 18.7014 15.4589 18.557 16.0025 18.3456C16.5693 18.1262 17.0854 17.7908 17.515 17.3609ZM3.19064 9.25466V11.2635C3.18802 12.3414 3.18802 12.6211 3.2169 13.2329C3.25104 14.0023 3.29305 14.5669 3.42172 14.9923C3.54514 15.4019 3.683 15.8194 4.13466 16.321C4.58632 16.8239 5.0209 17.051 5.57497 17.2191C6.13035 17.3858 6.82753 17.4213 7.43281 17.4488C8.11817 17.4803 8.39126 17.4803 9.83027 17.4803H11.3835C12.489 17.4816 12.7673 17.483 13.3871 17.4541C14.1551 17.4186 14.7197 17.3766 15.1464 17.2493C15.5548 17.1258 15.9723 16.9867 16.4738 16.5363C16.9767 16.0847 17.2038 15.6488 17.3719 15.0947C17.5386 14.5406 17.5754 13.8434 17.603 13.2382C17.6332 12.5528 17.6332 12.281 17.6332 10.846V9.67743C17.6332 8.23843 17.6332 7.96665 17.603 7.27997C17.5754 6.6747 17.5386 5.97752 17.3719 5.42345C17.2051 4.86807 16.978 4.43348 16.4738 3.98183C15.971 3.53017 15.5548 3.39231 15.1464 3.26889C14.7197 3.14153 14.1551 3.09821 13.3871 3.06407C12.7196 3.03664 12.0515 3.02788 11.3835 3.03781H9.83027C8.39126 3.03781 8.11817 3.03781 7.43281 3.06801C6.82753 3.09558 6.13035 3.13234 5.57497 3.29909C5.0209 3.46715 4.58632 3.69429 4.13466 4.19715C3.683 4.70001 3.54383 5.11622 3.42172 5.52586C3.29305 5.95126 3.25104 6.51583 3.2169 7.28523C3.18802 7.89706 3.18802 8.17672 3.19064 9.25466ZM10.4119 7.30492C9.62841 7.30492 8.87701 7.61616 8.323 8.17017C7.76899 8.72418 7.45775 9.47558 7.45775 10.2591C7.45775 11.0426 7.76899 11.794 8.323 12.348C8.87701 12.902 9.62841 13.2132 10.4119 13.2132C11.1954 13.2132 11.9468 12.902 12.5008 12.348C13.0548 11.794 13.3661 11.0426 13.3661 10.2591C13.3661 9.47558 13.0548 8.72418 12.5008 8.17017C11.9468 7.61616 11.1954 7.30492 10.4119 7.30492ZM6.1448 10.2591C6.1448 9.12737 6.59436 8.04201 7.3946 7.24177C8.19484 6.44153 9.2802 5.99196 10.4119 5.99196C11.5436 5.99196 12.629 6.44153 13.4292 7.24177C14.2294 8.04201 14.679 9.12737 14.679 10.2591C14.679 11.3908 14.2294 12.4761 13.4292 13.2764C12.629 14.0766 11.5436 14.5262 10.4119 14.5262C9.2802 14.5262 8.19484 14.0766 7.3946 13.2764C6.59436 12.4761 6.1448 11.3908 6.1448 10.2591ZM14.9679 6.68783C15.229 6.68783 15.4795 6.58408 15.6642 6.39941C15.8488 6.21474 15.9526 5.96428 15.9526 5.70311C15.9526 5.44195 15.8488 5.19148 15.6642 5.00681C15.4795 4.82214 15.229 4.7184 14.9679 4.7184C14.7067 4.7184 14.4562 4.82214 14.2716 5.00681C14.0869 5.19148 13.9831 5.44195 13.9831 5.70311C13.9831 5.96428 14.0869 6.21474 14.2716 6.39941C14.4562 6.58408 14.7067 6.68783 14.9679 6.68783Z" fill="white"/>
</svg>
