<svg width="21" height="21" viewBox="0 0 21 21" fill="none" xmlns="http://www.w3.org/2000/svg">
<path d="M13.1107 17.6443V11.928H15.0251L15.3115 9.70583H13.1107V8.28784C13.1107 7.64449 13.2895 7.20547 14.2119 7.20547H15.3886V5.21798C14.819 5.15754 14.2464 5.12823 13.6736 5.13018C11.9774 5.13018 10.8163 6.16577 10.8163 8.06792V9.70583H8.8977V11.928H10.8163V17.6443H3.75419C3.53656 17.6443 3.32783 17.5578 3.17394 17.404C3.02005 17.2501 2.93359 17.0413 2.93359 16.8237V3.69413C2.93359 3.4765 3.02005 3.26777 3.17394 3.11388C3.32783 2.95999 3.53656 2.87354 3.75419 2.87354H16.8838C17.1014 2.87354 17.3101 2.95999 17.464 3.11388C17.6179 3.26777 17.7044 3.4765 17.7044 3.69413V16.8237C17.7044 17.0413 17.6179 17.2501 17.464 17.404C17.3101 17.5578 17.1014 17.6443 16.8838 17.6443H13.1107Z" fill="white"/>
</svg>
