<svg width="21" height="21" viewBox="0 0 21 21" fill="none" xmlns="http://www.w3.org/2000/svg">
<path d="M13.1087 17.6443V11.928H15.0232L15.3095 9.70585H13.1087V8.28786C13.1087 7.64451 13.2876 7.20549 14.2099 7.20549H15.3867V5.218C14.817 5.15756 14.2445 5.12825 13.6716 5.13019C11.9755 5.13019 10.8143 6.16579 10.8143 8.06794V9.70585H8.89575V11.928H10.8143V17.6443H3.75224C3.5346 17.6443 3.32588 17.5579 3.17199 17.404C3.0181 17.2501 2.93164 17.0414 2.93164 16.8237V3.69415C2.93164 3.47651 3.0181 3.26779 3.17199 3.1139C3.32588 2.96001 3.5346 2.87355 3.75224 2.87355H16.8818C17.0994 2.87355 17.3082 2.96001 17.4621 3.1139C17.6159 3.26779 17.7024 3.47651 17.7024 3.69415V16.8237C17.7024 17.0414 17.6159 17.2501 17.4621 17.404C17.3082 17.5579 17.0994 17.6443 16.8818 17.6443H13.1087Z" fill="white"/>
</svg>
