<svg width="21" height="21" viewBox="0 0 21 21" fill="none" xmlns="http://www.w3.org/2000/svg">
<path d="M13.1107 17.6443V11.928H15.0251L15.3115 9.70585H13.1107V8.28786C13.1107 7.64451 13.2895 7.20549 14.2119 7.20549H15.3886V5.218C14.819 5.15756 14.2464 5.12825 13.6736 5.13019C11.9774 5.13019 10.8163 6.16579 10.8163 8.06794V9.70585H8.8977V11.928H10.8163V17.6443H3.75419C3.53656 17.6443 3.32783 17.5579 3.17394 17.404C3.02005 17.2501 2.93359 17.0414 2.93359 16.8237V3.69415C2.93359 3.47651 3.02005 3.26779 3.17394 3.1139C3.32783 2.96001 3.53656 2.87355 3.75419 2.87355H16.8838C17.1014 2.87355 17.3101 2.96001 17.464 3.1139C17.6179 3.26779 17.7044 3.47651 17.7044 3.69415V16.8237C17.7044 17.0414 17.6179 17.2501 17.464 17.404C17.3101 17.5579 17.1014 17.6443 16.8838 17.6443H13.1107Z" fill="white"/>
</svg>
