<svg width="21" height="21" viewBox="0 0 21 21" fill="none" xmlns="http://www.w3.org/2000/svg">
<path d="M6.21208 4.51476C6.21186 4.95003 6.03874 5.36739 5.7308 5.67502C5.42287 5.98265 5.00534 6.15535 4.57006 6.15513C4.13479 6.15492 3.71743 5.9818 3.4098 5.67386C3.10217 5.36592 2.92947 4.94839 2.92969 4.51312C2.92991 4.07785 3.10303 3.66049 3.41096 3.35286C3.7189 3.04523 4.13643 2.87252 4.5717 2.87274C5.00698 2.87296 5.42433 3.04608 5.73196 3.35402C6.03959 3.66196 6.2123 4.07949 6.21208 4.51476ZM6.26132 7.37044H2.97892V17.6443H6.26132V7.37044ZM11.4475 7.37044H8.18152V17.6443H11.4147V12.253C11.4147 9.24961 15.3289 8.97061 15.3289 12.253V17.6443H18.5703V11.137C18.5703 6.07389 12.7769 6.26263 11.4147 8.74904L11.4475 7.37044Z" fill="white"/>
</svg>
