<svg width="21" height="21" viewBox="0 0 21 21" fill="none" xmlns="http://www.w3.org/2000/svg">
<path d="M6.21318 4.51458C6.21296 4.94985 6.03984 5.36721 5.7319 5.67484C5.42397 5.98247 5.00643 6.15517 4.57116 6.15495C4.13589 6.15473 3.71853 5.98161 3.4109 5.67368C3.10327 5.36574 2.93057 4.94821 2.93079 4.51293C2.931 4.07766 3.10412 3.6603 3.41206 3.35267C3.72 3.04504 4.13753 2.87234 4.5728 2.87256C5.00808 2.87278 5.42543 3.0459 5.73306 3.35383C6.04069 3.66177 6.2134 4.0793 6.21318 4.51458ZM6.26241 7.37026H2.98002V17.6441H6.26241V7.37026ZM11.4486 7.37026H8.18261V17.6441H11.4158V12.2528C11.4158 9.24943 15.33 8.97042 15.33 12.2528V17.6441H18.5714V11.1368C18.5714 6.07371 12.778 6.26245 11.4158 8.74886L11.4486 7.37026Z" fill="white"/>
</svg>
