<svg width="21" height="21" viewBox="0 0 21 21" fill="none" xmlns="http://www.w3.org/2000/svg">
<path d="M6.21318 4.5147C6.21296 4.94997 6.03984 5.36733 5.7319 5.67496C5.42397 5.98259 5.00643 6.15529 4.57116 6.15507C4.13589 6.15486 3.71853 5.98174 3.4109 5.6738C3.10327 5.36586 2.93057 4.94833 2.93079 4.51306C2.931 4.07778 3.10412 3.66043 3.41206 3.3528C3.72 3.04517 4.13753 2.87246 4.5728 2.87268C5.00808 2.8729 5.42543 3.04602 5.73306 3.35396C6.04069 3.66189 6.2134 4.07943 6.21318 4.5147ZM6.26241 7.37038H2.98002V17.6443H6.26241V7.37038ZM11.4486 7.37038H8.18261V17.6443H11.4158V12.2529C11.4158 9.24955 15.33 8.97054 15.33 12.2529V17.6443H18.5714V11.1369C18.5714 6.07383 12.778 6.26257 11.4158 8.74898L11.4486 7.37038Z" fill="white"/>
</svg>
