<svg width="153" height="51" viewBox="0 0 153 51" fill="none" xmlns="http://www.w3.org/2000/svg">
<path d="M18.3811 37.0484C18.8559 36.0114 19.0942 34.8835 19.079 33.745C19.1128 32.6463 18.8782 31.5557 18.3952 30.5661C17.9499 29.6941 17.3311 28.9204 16.5761 28.2915C15.8088 27.6595 14.9619 27.1289 14.0567 26.7131C13.124 26.2831 12.1698 25.8997 11.2015 25.5663L8.37446 24.5834C7.53903 24.2926 6.73155 23.9283 5.96168 23.4949C5.32181 23.1452 4.7581 22.6737 4.30299 22.1073C3.90058 21.5482 3.69858 20.8717 3.72915 20.1857C3.72428 19.5523 3.87376 18.9272 4.16491 18.3632C4.47417 17.78 4.91088 17.2724 5.44323 16.8774C6.06502 16.4195 6.76217 16.0717 7.50377 15.8494C8.42078 15.5787 9.37404 15.4478 10.3308 15.4612C11.4548 15.4691 12.5744 15.5993 13.6697 15.8494C14.6932 16.0709 15.6982 16.3691 16.6762 16.7414L16.9383 16.8455L17.7825 15.0926L17.5344 14.9779C17.0499 14.7628 16.5509 14.5811 16.0411 14.4341C15.4068 14.2382 14.763 14.0742 14.1121 13.9426C13.434 13.8009 12.7155 13.6805 12.0242 13.5937C10.1884 13.3018 8.30907 13.4378 6.53552 13.9909C5.55363 14.3157 4.63984 14.8154 3.83912 15.4653C3.11005 16.0707 2.51833 16.8218 2.10271 17.6695C1.69722 18.5043 1.48722 19.419 1.48835 20.3454C1.46082 21.264 1.70575 22.1705 2.19284 22.9526C2.66894 23.6727 3.28784 24.2894 4.01194 24.7653C4.79953 25.2901 5.64373 25.7264 6.5289 26.066C7.4277 26.4198 8.38769 26.7737 9.36256 27.1103C10.3374 27.447 11.2569 27.791 12.1739 28.1612C13.0151 28.5037 13.8167 28.9346 14.5652 29.4464C15.2369 29.9056 15.8024 30.5012 16.2239 31.1935C16.6577 31.9481 16.8731 32.8066 16.8465 33.6745C16.8692 34.6055 16.6271 35.524 16.1478 36.3251C15.6906 37.0604 15.0771 37.6882 14.3502 38.1648C13.5972 38.6572 12.7683 39.0248 11.8961 39.2534C10.3093 39.6761 8.64419 39.721 7.0366 39.3844C6.30708 39.238 5.58874 39.0415 4.88676 38.7963C4.22703 38.5669 3.58055 38.3016 2.95024 38.0018C2.41889 37.7517 1.90435 37.468 1.4098 37.1524L1.14024 36.9779L0 38.9159L0.2555 39.0462C0.552344 39.1985 0.967429 39.4221 1.49579 39.7154C2.12357 40.0556 2.77227 40.3566 3.43809 40.6164C4.26954 40.9422 5.12692 41.1989 6.00137 41.3838C7.01788 41.5946 8.05364 41.7008 9.09218 41.7008H9.38489C10.6848 41.7013 11.9782 41.5176 13.2257 41.1553C14.3584 40.8238 15.4182 40.2848 16.3504 39.5663C17.2164 38.8947 17.9121 38.0319 18.382 37.0468M32.4279 15.6971H40.4608V13.6133H22.2244V15.6971H30.1739V41.3707H32.4271L32.4279 15.6971ZM75.0725 41.4027L56.5574 12.5469L56.301 12.1603L37.7959 40.9841L37.5263 41.4035L40.1946 41.3929L47.6885 29.729H54.3248L53.1987 27.6501H49.0189L56.3052 16.3081L72.3215 41.2618L72.4042 41.3929L75.0725 41.4027ZM98.6182 50.5765C98.5562 50.348 96.0326 46.4082 94.2152 43.5233L92.8393 41.3462L91.8718 39.8218L90.5026 37.7102L88.805 35.0785L87.0686 32.4115L85.596 30.1311L84.8361 28.9607C86.3466 28.3826 87.6223 27.3268 88.4652 25.9571C89.2638 24.6222 89.6864 23.0996 89.6889 21.5479C89.7204 20.2956 89.4251 19.0565 88.8315 17.9504C88.2972 16.9894 87.5535 16.1583 86.6543 15.5177C85.7563 14.8941 84.7546 14.4316 83.695 14.1515C82.6656 13.8709 81.6032 13.7266 80.5356 13.7223H75.0378L66.2862 0H63.6461L73.6825 15.7839H80.4628C81.4171 15.7836 82.3649 15.9399 83.2675 16.2467C84.0763 16.5231 84.8281 16.9418 85.4868 17.4827C86.0773 17.9727 86.5563 18.581 86.8925 19.2675C87.2165 19.9481 87.3818 20.6922 87.3762 21.4447C87.3638 22.1163 87.2567 22.783 87.0578 23.4252C86.8331 24.1712 86.4541 24.8627 85.9449 25.4558C85.3492 26.1367 84.6107 26.6807 83.781 27.0497C82.7703 27.4775 81.6826 27.6976 80.5835 27.6968C80.4898 27.6968 80.3964 27.6952 80.3032 27.6919H76.2135L77.3339 29.7716H80.2883C80.7108 29.7716 81.1251 29.7519 81.541 29.7118L82.5333 29.6028C82.7896 29.9952 83.1212 30.4989 83.5156 31.1157C83.9579 31.8201 84.4491 32.5819 84.9808 33.401L86.6188 35.9156L88.1675 38.3106L89.3913 40.2265L90.9391 42.6837C93.614 46.943 96.0202 50.7772 96.0955 50.8804L96.1856 51H98.9142L98.6182 50.5765ZM117.241 17.1895L118.398 15.4202L118.15 15.2794C116.965 14.6372 115.701 14.1488 114.39 13.8263C113.026 13.4896 111.627 13.3196 110.222 13.3201H110.15C106.198 13.3057 102.39 14.7875 99.5054 17.4622C98.128 18.7672 97.0179 20.3232 96.236 22.0451C95.4273 23.8209 95.0147 25.7486 95.0263 27.6968C95.0156 29.5785 95.3809 31.4436 96.1012 33.1847C96.7922 34.8603 97.8308 36.3734 99.1499 37.6258C100.528 38.9158 102.145 39.9289 103.913 40.609C105.822 41.3278 107.848 41.6947 109.89 41.6918H110.138H110.206C112.976 41.6958 115.705 41.0228 118.15 39.7326L118.296 39.6564V27.6853H110.899L111.974 29.7535H116.108V38.3065C115.203 38.7506 114.246 39.0851 113.26 39.3025C112.208 39.5391 111.132 39.6597 110.053 39.6621H109.896C108.166 39.6633 106.452 39.3438 104.841 38.7202C103.359 38.157 102.009 37.2997 100.874 36.2011C99.739 35.1024 98.8424 33.7855 98.2395 32.3312C97.6297 30.847 97.3206 29.2583 97.33 27.6559C97.3243 26.0151 97.6707 24.3918 98.3462 22.8936C99.0097 21.4162 99.9531 20.0785 101.125 18.953C102.309 17.8303 103.695 16.9369 105.211 16.3188C106.763 15.6851 108.427 15.3595 110.106 15.3604H110.174C111.386 15.3615 112.594 15.5134 113.769 15.8126C114.892 16.0903 115.976 16.5072 116.994 17.0535L117.241 17.1895ZM150.775 27.5215C150.788 29.151 150.441 30.7635 149.758 32.246C149.092 33.6949 148.146 35.0005 146.973 36.0892C145.768 37.1974 144.369 38.0789 142.845 38.6907C141.27 39.3242 139.585 39.6493 137.884 39.6482H137.755C136.088 39.6491 134.437 39.3237 132.897 38.6907C131.396 38.0749 130.02 37.1933 128.838 36.0892C127.679 34.9984 126.746 33.6926 126.094 32.246C125.434 30.7636 125.094 29.1613 125.094 27.5412C125.094 25.9211 125.434 24.3188 126.094 22.8363C127.441 19.8826 129.892 17.561 132.931 16.3589C136.128 15.0815 139.701 15.0815 142.898 16.3589C145.94 17.5533 148.395 19.8693 149.749 22.8199C150.424 24.2955 150.773 25.8967 150.773 27.5166L150.775 27.5215ZM151.812 21.9926L151.847 22.0033C150.224 18.5411 147.321 15.8286 143.738 14.4267C141.911 13.7062 139.963 13.3365 137.997 13.3373H137.712C135.755 13.3351 133.816 13.7049 131.999 14.4267C128.46 15.8455 125.605 18.5553 124.022 21.9976C123.236 23.7323 122.83 25.6123 122.83 27.5137C122.83 29.4152 123.236 31.2951 124.022 33.0299C124.799 34.7135 125.889 36.2367 127.237 37.5194C130.085 40.1949 133.861 41.6855 137.786 41.6836H137.892C139.896 41.6846 141.881 41.3001 143.738 40.5516C145.516 39.837 147.149 38.8078 148.557 37.5145C149.923 36.2393 151.029 34.715 151.813 33.025C152.595 31.2894 153 29.4098 153 27.5088C153 25.6079 152.595 23.7283 151.812 21.9926Z" fill="#9EADB9"/>
</svg>
