<svg width="279" height="92" viewBox="0 0 279 92" fill="none" xmlns="http://www.w3.org/2000/svg">
<path d="M33.5186 66.8324C34.3843 64.9618 34.8188 62.9272 34.7912 60.8733C34.8527 58.8913 34.4249 56.9241 33.5442 55.1388C32.7322 53.5658 31.6038 52.1701 30.227 51.0356C28.8278 49.8956 27.2835 48.9385 25.6327 48.1883C23.9319 47.4126 22.1919 46.7211 20.4263 46.1197L15.2711 44.3466C13.7476 43.8219 12.2752 43.1648 10.8713 42.3829C9.70448 41.7522 8.67653 40.9015 7.84663 39.8799C7.11283 38.8712 6.74447 37.651 6.80021 36.4135C6.79133 35.2709 7.06391 34.1431 7.59483 33.1259C8.15878 32.0736 8.95514 31.158 9.9259 30.4455C11.0597 29.6194 12.331 28.9921 13.6834 28.5912C15.3555 28.1028 17.0938 27.8666 18.8386 27.8908C20.8881 27.9051 22.9299 28.14 24.9271 28.5912C26.7935 28.9907 28.6262 29.5286 30.4095 30.2002L30.8874 30.3879L32.4269 27.2259L31.9746 27.019C31.091 26.6309 30.1811 26.3031 29.2515 26.0379C28.0948 25.6847 26.9208 25.3888 25.7338 25.1514C24.4974 24.8957 23.1871 24.6785 21.9265 24.5219C18.5788 23.9954 15.1518 24.2408 11.9177 25.2385C10.1272 25.8244 8.46089 26.7258 7.00075 27.8982C5.67127 28.9902 4.59224 30.3452 3.83436 31.8743C3.09494 33.3803 2.71199 35.0304 2.71405 36.7016C2.66384 38.3587 3.11048 39.9938 3.99871 41.4047C4.86689 42.7037 5.99546 43.8162 7.31588 44.6746C8.75208 45.6214 10.2915 46.4084 11.9057 47.021C13.5446 47.6593 15.2952 48.2976 17.0729 48.9049C18.8506 49.5122 20.5273 50.1328 22.1995 50.8007C23.7334 51.4185 25.1952 52.1957 26.56 53.119C27.785 53.9474 28.8161 55.0217 29.5847 56.2707C30.3758 57.6319 30.7686 59.1805 30.7201 60.7462C30.7616 62.4256 30.32 64.0826 29.446 65.5277C28.6122 66.854 27.4936 67.9865 26.168 68.8463C24.7949 69.7345 23.2834 70.3977 21.6928 70.81C18.7994 71.5725 15.7629 71.6535 12.8314 71.0464C11.5012 70.7823 10.1912 70.4278 8.91114 69.9855C7.70811 69.5716 6.52924 69.0931 5.37986 68.5523C4.41092 68.1012 3.47264 67.5893 2.57081 67.02L2.07927 66.7053L0 70.2013L0.465913 70.4362C1.00722 70.711 1.76414 71.1144 2.72762 71.6434C3.87239 72.2572 5.05532 72.8001 6.26946 73.2687C7.78563 73.8565 9.3491 74.3196 10.9437 74.6532C12.7973 75.0334 14.6861 75.225 16.5799 75.225H17.1136C19.4841 75.2258 21.8426 74.8945 24.1174 74.241C26.1829 73.643 28.1156 72.6707 29.8154 71.3745C31.3947 70.1629 32.6633 68.6065 33.5201 66.8294M59.1332 28.3163H73.7816V24.5574H40.5269V28.3163H55.0229V74.6296H59.1317L59.1332 28.3163ZM136.897 74.6872L103.134 22.6336L102.667 21.9361L68.9219 73.9322L68.4304 74.6887L73.296 74.6695L86.9613 53.6287H99.063L97.0093 49.8786H89.3874L102.674 29.4186L131.88 74.4331L132.031 74.6695L136.897 74.6872ZM179.833 91.2361C179.72 90.8238 175.118 83.7167 171.804 78.5127L169.295 74.5853L167.531 71.8355L165.034 68.0263L161.939 63.2788L158.772 58.4678L156.087 54.3542L154.701 52.2428C157.456 51.1999 159.782 49.2953 161.319 46.8245C162.775 44.4165 163.546 41.6698 163.55 38.8707C163.608 36.6117 163.069 34.3764 161.987 32.3811C161.013 30.6475 159.656 29.1483 158.017 27.9927C156.379 26.8678 154.553 26.0335 152.62 25.5281C150.743 25.0221 148.806 24.7617 146.859 24.7539H136.834L120.875 0H116.06L134.362 28.473H146.726C148.466 28.4723 150.195 28.7544 151.841 29.3078C153.316 29.8064 154.687 30.5617 155.888 31.5375C156.964 32.4214 157.838 33.5186 158.451 34.7571C159.042 35.9848 159.343 37.3271 159.333 38.6845C159.311 39.8961 159.115 41.0987 158.753 42.2573C158.343 43.603 157.652 44.8504 156.723 45.9202C155.637 47.1485 154.29 48.1298 152.777 48.7956C150.934 49.5672 148.951 49.9643 146.946 49.9629C146.776 49.9629 146.605 49.9599 146.435 49.954H138.978L141.021 53.7056H146.408C147.179 53.7056 147.934 53.6701 148.692 53.5977L150.502 53.4012C150.969 54.109 151.574 55.0177 152.293 56.1303C153.1 57.401 153.995 58.7751 154.965 60.2527L157.952 64.7889L160.776 69.1093L163.008 72.5654L165.83 76.9981C170.708 84.6815 175.096 91.5981 175.233 91.7843L175.397 92H180.373L179.833 91.2361ZM213.792 31.0085L215.903 27.8169L215.451 27.5628C213.289 26.4043 210.984 25.5234 208.593 24.9415C206.107 24.3343 203.554 24.0276 200.992 24.0284H200.861C193.656 24.0024 186.712 26.6754 181.451 31.5005C178.939 33.8545 176.915 36.6615 175.489 39.7676C174.014 42.9711 173.262 46.4485 173.283 49.9629C173.264 53.3572 173.93 56.7218 175.243 59.8626C176.503 62.8853 178.397 65.6147 180.803 67.8741C183.316 70.2011 186.265 72.0286 189.488 73.2554C192.969 74.552 196.663 75.214 200.388 75.2088H200.84H200.964C206.016 75.216 210.992 74.002 215.451 71.6744L215.716 71.537V49.9422H202.227L204.187 53.6731H211.726V69.102C210.075 69.9031 208.332 70.5064 206.533 70.8987C204.614 71.3254 202.653 71.5429 200.685 71.5473H200.398C197.245 71.5495 194.118 70.9732 191.181 69.8481C188.479 68.8322 186.017 67.2858 183.947 65.3039C181.877 63.322 180.242 60.9464 179.143 58.323C178.031 55.6455 177.467 52.7797 177.484 49.889C177.474 46.9291 178.105 44.0009 179.337 41.2983C180.547 38.6331 182.267 36.22 184.405 34.1897C186.564 32.1645 189.091 30.5528 191.855 29.4378C194.686 28.2947 197.719 27.7073 200.781 27.709H200.905C203.116 27.7109 205.319 27.9849 207.461 28.5247C209.509 29.0257 211.485 29.7778 213.341 30.7632L213.792 31.0085ZM274.943 49.6467C274.966 52.5861 274.333 55.4949 273.088 58.1693C271.873 60.783 270.148 63.1382 268.01 65.1021C265.812 67.1011 263.262 68.6913 260.483 69.7949C257.609 70.9378 254.537 71.5243 251.436 71.5222H251.201C248.16 71.5238 245.149 70.9368 242.341 69.7949C239.604 68.6841 237.096 67.0938 234.941 65.1021C232.826 63.1343 231.125 60.7789 229.936 58.1693C228.733 55.4951 228.112 52.6047 228.112 49.6821C228.112 46.7596 228.733 43.8691 229.936 41.1949C232.393 35.8667 236.862 31.6787 242.403 29.5102C248.233 27.2058 254.749 27.2058 260.579 29.5102C266.126 31.6648 270.603 35.8426 273.072 41.1654C274.302 43.8271 274.938 46.7157 274.938 49.6378L274.943 49.6467ZM276.834 39.673L276.897 39.6922C273.939 33.4466 268.645 28.5536 262.11 26.0246C258.779 24.7249 255.226 24.058 251.641 24.0594H251.122C247.554 24.0554 244.017 24.7225 240.705 26.0246C234.25 28.584 229.044 33.4722 226.158 39.6819C224.724 42.8113 223.983 46.2025 223.983 49.6326C223.983 53.0627 224.724 56.454 226.158 59.5834C227.574 62.6205 229.563 65.3681 232.02 67.682C237.213 72.5084 244.099 75.1973 251.257 75.194H251.45C255.104 75.1957 258.725 74.5022 262.11 73.152C265.354 71.8628 268.331 70.0063 270.897 67.6731C273.389 65.3728 275.406 62.6231 276.835 59.5745C278.262 56.4436 279 53.0529 279 49.6238C279 46.1946 278.261 42.804 276.834 39.673Z" fill="#496579"/>
</svg>
